PathFileType	4	(X/Y/Z)	Patient4_TMGait_0pt6_02_left_13.trc.trc
DataRate	CameraRate	NumFrames	NumMarkers	Units	OrigDataRate	OrigDataStartFrame	OrigNumFrames
81.871345029240	81.871345029240	4	33	mm	81.871345029240	124	       141
Frame#	Time	Sacral			L.Shoulder			Chest			R.Shoulder			Neck			R.ASIS			L.ASIS			R.Thigh.Superior			R.Thigh.Lateral			R.Thigh.Inferior			R.Patella			L.Thigh.Superior			L.Thigh.Lateral			L.Thigh.Inferior			L.Patella			L.Shank.Superior			L.Shank.Lateral			L.Shank.Inferior			R.Shank.Superior			R.Shank.Lateral			R.Shank.Inferior			R.Heel			R.Midfoot.Superior			R.Midfoot.Lateral			R.Toe			L.Heel			L.Midfoot.Lateral			L.Midfoot.Superior			L.Toe			L.Elbow			L.Wrist			R.Elbow			R.Wrist			
		X1	Y1	Z1	X2	Y2	Z2	X3	Y3	Z3	X4	Y4	Z4	X5	Y5	Z5	X6	Y6	Z6	X7	Y7	Z7	X8	Y8	Z8	X9	Y9	Z9	X10	Y10	Z10	X11	Y11	Z11	X12	Y12	Z12	X13	Y13	Z13	X14	Y14	Z14	X15	Y15	Z15	X16	Y16	Z16	X17	Y17	Z17	X18	Y18	Z18	X19	Y19	Z19	X20	Y20	Z20	X21	Y21	Z21	X22	Y22	Z22	X23	Y23	Z23	X24	Y24	Z24	X25	Y25	Z25	X26	Y26	Z26	X27	Y27	Z27	X28	Y28	Z28	X29	Y29	Z29	X30	Y30	Z30	X31	Y31	Z31	X32	Y32	Z32	X33	Y33	Z33	

124	17.482357142857	761.493242464038	1003.040334193876	523.335873889900	921.531244407847	1427.311362078215	327.271359816388	1041.304945838598	1357.153135491588	474.739097920721	978.517183622955	1434.573577959914	654.783004080569	937.045500210111	1487.559176385923	477.922296923777	992.604306339540	935.764671918840	625.034177160241	962.811504010084	951.187313827978	351.285085037368	989.402340333440	722.318212135082	598.850109943863	884.086954386609	629.222178226210	660.202723836269	942.940708233831	562.877906733932	579.374728839868	922.169495245981	477.463826895284	581.610686882827	1036.890745563909	767.944335346573	385.305375499258	981.200864978163	636.257213171180	314.514351861028	1084.877667861459	578.390914809593	374.797785845408	1106.415169821340	511.100848763172	375.907899248802	1090.879800506485	438.102654965514	366.893139509066	1023.136613574966	307.760541354936	320.240072540272	1109.207365034252	209.481881645983	377.043988586504	883.126106860294	394.734093331026	588.431288254916	799.626557744753	301.436655394687	651.806518695781	824.524861005191	202.494928288471	585.153095229431	671.878732446873	45.968594000785	555.681365184739	844.156541861949	96.195512013950	589.808189692997	755.588563842277	37.065385890968	628.353761297572	963.929652067184	39.779722605587	616.636283586526	1020.493565591352	39.627603774626	421.502100932532	1092.538063918116	38.764569125276	339.701225641173	1170.507412456483	107.657156280340	359.739378294138	1300.374946188857	66.294355552121	330.369169409629	790.686728901097	1095.646555503945	232.687079529653	777.519876385495	835.491248560064	226.990275653402	1127.281003300218	1128.365569192937	757.932223268425	1305.952891427490	1240.171289889585	629.544526115062	
125	17.494571428571	762.695444877172	1001.948621996201	520.912585898039	921.371631436247	1426.452587144973	325.211921704245	1041.331846337257	1356.778974054967	472.787401331671	977.913716954521	1433.843768816093	652.818474599370	936.582351495756	1486.793741800308	475.867285502723	993.645215372562	934.898426712295	623.465283799686	964.699109844031	950.119191413785	349.729336054354	989.720802738248	721.181762299720	597.947426777531	883.472383116700	628.626323361881	658.912193623848	942.373211045572	561.727791135052	578.517596033512	920.765335395598	475.895206663967	580.600463159131	1038.722784357273	766.392207744083	384.288850261746	981.704262480624	634.766794111906	314.656855537502	1085.412961536717	576.782979828117	374.811440662389	1105.525172933533	508.469051155416	376.673117348802	1089.387711132187	435.161209376061	367.624334064761	1019.494523039897	305.810184093622	321.176521155807	1103.357954054951	206.165582407436	378.745188774121	880.561674280560	393.694380132452	587.650301109358	795.563785441062	301.743781492515	651.294724688082	819.032323272421	202.286536128084	584.943971343210	664.594009050913	46.895386170472	555.930287514389	837.153387768083	96.337185705205	590.009747928075	748.333661644955	37.393789662027	628.497964228495	956.660950369480	39.445055223791	616.747778767242	1010.532667248195	38.778878842597	422.977228017523	1082.531584743733	37.219444089690	341.014873605286	1162.439291864448	103.627034063293	362.193569805705	1291.593327380064	58.975615690742	332.215134567899	790.050716708599	1095.039093810919	230.902950905150	778.590642877050	834.577561645501	225.948007317438	1128.163619396841	1128.038154918561	755.406570650623	1305.632837554628	1241.525099591383	626.674014586905	
126	17.506785714286	763.856568697521	1001.132508116518	518.485137198383	921.339305484749	1425.763059791494	323.057500030659	1041.486552855461	1356.566856201412	470.747773010613	977.493662957400	1433.351625613004	650.764138320177	936.319472809494	1486.247026552036	473.674961873237	994.656624599443	934.151382419011	621.722853176411	966.435677375181	949.366708225083	348.072568892645	990.204423074977	720.220941602791	596.838569279847	883.215428307093	628.095995208072	657.463265745032	942.270204606741	560.697642368494	577.512962822238	919.940604817857	474.290306515060	579.557465461055	1040.294493661160	765.068411887679	383.256486695049	982.243690963790	633.787022639596	314.394039360211	1085.706778932770	575.492262745624	374.740646173660	1104.477922898062	506.312673757006	377.172750842703	1087.815562341032	432.758844506262	368.010007450947	1016.139546653981	304.340913588894	321.522641142092	1097.787572468072	203.500384120461	380.030495232221	878.412765261177	392.699547937894	586.819377048479	791.787607166270	302.237045535987	650.711906139572	813.755223383909	202.229590080376	584.751781139156	657.360393597655	48.201838931086	556.215044683932	830.311155221618	96.564951997935	590.269320539374	741.130269888262	37.891489478116	628.666003425998	949.438039480339	39.091644954374	616.860868365443	1001.266660448451	38.157762262905	423.974504979325	1073.289143248695	36.185533024452	341.926823239864	1154.677832159156	100.563785096731	364.211860266223	1283.290262509691	53.352952811167	333.816154439246	789.981975894707	1094.355545539888	229.005853989731	780.334447797925	833.600631627923	224.679112673957	1128.190035719710	1127.389178171294	753.252200905696	1305.275193338393	1241.492202861094	624.174361035757	
127	17.519000000000	764.941401310230	1000.661368543892	516.089986848559	921.437901858054	1425.310529229026	320.838499441202	1041.767939428132	1356.552970086943	468.635620481697	977.305254410689	1433.159270074719	648.634253733057	936.272333438726	1485.975497307950	471.376093644348	995.598742946329	933.594307402959	619.800736097857	967.954752803889	948.990065988113	346.290977896732	990.819844854025	719.504803714175	595.494465506802	883.346241579738	627.673842268766	655.876228024056	942.670529423322	559.840736899864	576.373985129552	919.782371658766	472.676637255249	578.560806486338	1041.573386360151	764.105319403429	382.173379231164	982.807150494868	633.369156686275	313.689943213492	1085.746141399245	574.588182376917	374.491316866764	1103.285906575122	504.694909128808	377.302832319452	1086.151960820877	430.941204384267	368.008858529560	1013.031218041870	303.395622344451	321.264064022311	1092.478655803772	201.525540492094	380.854662733087	876.727780375416	391.788642639081	585.987623328523	788.338210814161	302.977371696812	650.085251517959	808.741728343512	202.382610543894	584.609388341949	650.210072391210	49.987704215771	556.537254791238	823.676626728820	96.895037300236	590.600012736543	733.995707906992	38.607864252419	628.852467066421	942.264621116178	38.727339285838	616.966641510054	992.738307953323	37.763636518472	424.537909192761	1064.823740353447	35.599855071237	342.455431421712	1147.237357292877	98.460453615584	365.704110451834	1275.478896108887	49.435404876395	335.059728223727	790.511931172996	1093.662258239156	227.008560158653	782.744524489305	832.633512400473	223.177200725899	1127.341703372425	1126.463506574320	751.463329102324	1304.919306813767	1240.052470363021	622.073709785624	
